<svg width="58" height="74" viewBox="0 0 58 74" fill="none" xmlns="http://www.w3.org/2000/svg">
    <path d="M29.2454 18.0609L12.3287 9.2005L13.3125 8.1264L37.4832 11.2287L38.383 11.3442L38.996 10.6754L46.1857 2.83216L46.1959 2.82101L46.2059 2.80969C46.5099 2.46636 46.8651 2.20186 47.2461 2.02333C47.6265 1.84506 48.0292 1.75394 48.432 1.75013C48.8349 1.74631 49.2385 1.82976 49.6209 2.00044C50.0038 2.17135 50.3623 2.42847 50.671 2.76519C50.9799 3.10222 51.2316 3.51124 51.4044 3.97194C51.5772 4.43276 51.6657 4.93109 51.6616 5.43658C51.6576 5.94207 51.5612 6.43829 51.3813 6.89513C51.2015 7.35185 50.9438 7.75524 50.6303 8.08558L50.6197 8.0967L50.6094 8.108L43.6054 15.7513L43.071 16.3346L43.1557 17.1211L46.0182 43.6846L45.0661 44.7232L37.1939 26.3963L36.1254 23.9087L34.296 25.9044L26.0909 34.8554L25.5026 35.4971L25.6596 36.3534L27.2536 45.0507L26.2337 46.1633L22.0033 35.3979L21.748 34.7483L21.1157 34.4526L11.019 29.7321L12.2295 28.4116L20.0035 30.1097L20.9869 30.3245L21.667 29.5825L29.7235 20.7936L31.2609 19.1165L29.2454 18.0609Z"
          fill="#A0DDD0" stroke="#A0DDD0" stroke-width="3.5"/>
    <path d="M8.19335 45.212C7.5703 45.0873 6.92613 45.2822 6.47682 45.7315L2.6565 49.5518C2.21069 49.9977 2.01506 50.6356 2.13428 51.2547C2.25351 51.8737 2.67206 52.3934 3.25155 52.6417L15.9242 58.0729L21.358 70.7483C21.6064 71.3277 22.126 71.7462 22.7451 71.8654C23.3642 71.9846 24.002 71.7889 24.4478 71.3432L28.2681 67.5228C28.7173 67.0737 28.9123 66.4297 28.7878 65.8068L27.0769 57.2504L33.3941 50.9332L41.9984 69.2956C42.2612 69.8563 42.7808 70.2538 43.3907 70.3608C44.0007 70.4678 44.6245 70.2708 45.0624 69.8329L48.6801 66.2152C49.0912 65.804 49.2915 65.2273 49.2236 64.6498L46.1159 38.2138L53.095 31.2323C53.7865 30.5611 54.3384 29.7597 54.7188 28.8741C55.1016 27.9831 55.3031 27.0247 55.3115 26.0549C55.3199 25.0852 55.1351 24.1234 54.7679 23.2258C54.4007 22.3283 53.8583 21.5128 53.1726 20.8271C52.4868 20.1413 51.6714 19.599 50.7738 19.2318C49.8762 18.8645 48.9145 18.6797 47.9447 18.6882C46.975 18.6966 46.0166 18.8981 45.1255 19.2808C44.2399 19.6613 43.4384 20.2132 42.7672 20.9048L35.5858 28.0862L9.15006 24.976C8.57229 24.908 7.99522 25.1085 7.58402 25.52L4.16626 28.9405C3.73087 29.3762 3.53373 29.996 3.63739 30.6032C3.74106 31.2104 4.13265 31.7297 4.68795 31.9963L22.9234 40.7514L16.7495 46.9252L8.19335 45.212Z"
          fill="#00C29A" stroke="white" stroke-width="3.8" stroke-linecap="round" stroke-linejoin="round"/>
</svg>
