<svg width="329" height="226" viewBox="0 0 329 226" fill="none" xmlns="http://www.w3.org/2000/svg">
<circle cx="75" cy="53" r="9" fill="#00C29A"/>
<circle cx="9" cy="9" r="9" fill="#EFEFEF"/>
<circle cx="9" cy="75" r="9" fill="#EFEFEF"/>
<circle cx="119" cy="53" r="9" fill="#EFEFEF"/>
<circle cx="141" cy="53" r="9" fill="#EFEFEF"/>
<circle cx="31" cy="9" r="9" fill="#EFEFEF"/>
<circle cx="31" cy="75" r="9" fill="#EFEFEF"/>
<circle cx="97" cy="75" r="9" fill="#EFEFEF"/>
<circle cx="31" cy="97" r="9" fill="#EFEFEF"/>
<circle cx="53" cy="9" r="9" fill="#EFEFEF"/>
<circle cx="53" cy="75" r="9" fill="#EFEFEF"/>
<circle cx="119" cy="75" r="9" fill="#EFEFEF"/>
<circle cx="75" cy="75" r="9" fill="#EFEFEF"/>
<circle cx="9" cy="97" r="9" fill="#EFEFEF"/>
<circle cx="141" cy="75" r="9" fill="#EFEFEF"/>
<circle cx="97" cy="9" r="9" fill="#EFEFEF"/>
<circle cx="75" cy="31" r="9" fill="#FFAA00"/>
<circle cx="75" cy="9" r="9" fill="#EE484B"/>
<circle cx="119" cy="9" r="9" fill="#EE484B"/>
<circle cx="141" cy="9" r="9" fill="#FFAA00"/>
<circle cx="9" cy="31" r="9" fill="#FFAA00"/>
<circle cx="31" cy="31" r="9" fill="#FFAA00"/>
<circle cx="53" cy="31" r="9" fill="#00C29A"/>
<circle cx="97" cy="31" r="9" fill="#FFAA00"/>
<circle cx="119" cy="31" r="9" fill="#FFAA00"/>
<circle cx="141" cy="31" r="9" fill="#EE484B"/>
<circle cx="9" cy="53" r="9" fill="#EE484B"/>
<circle cx="31" cy="53" r="9" fill="#FFAA00"/>
<circle cx="53" cy="53" r="9" fill="#00C29A"/>
<circle cx="97" cy="53" r="9" fill="#EE484B"/>
<circle cx="75" cy="173" r="9" fill="#00C29A"/>
<circle cx="9" cy="129" r="9" fill="#EFEFEF"/>
<circle cx="9" cy="195" r="9" fill="#EFEFEF"/>
<circle cx="119" cy="173" r="9" fill="#EFEFEF"/>
<circle cx="141" cy="173" r="9" fill="#EFEFEF"/>
<circle cx="31" cy="129" r="9" fill="#EFEFEF"/>
<circle cx="31" cy="195" r="9" fill="#EFEFEF"/>
<circle cx="97" cy="195" r="9" fill="#EFEFEF"/>
<circle cx="31" cy="217" r="9" fill="#EFEFEF"/>
<circle cx="53" cy="129" r="9" fill="#EFEFEF"/>
<circle cx="53" cy="195" r="9" fill="#EFEFEF"/>
<circle cx="119" cy="195" r="9" fill="#EFEFEF"/>
<circle cx="75" cy="195" r="9" fill="#EFEFEF"/>
<circle cx="9" cy="217" r="9" fill="#EFEFEF"/>
<circle cx="141" cy="195" r="9" fill="#EFEFEF"/>
<circle cx="97" cy="129" r="9" fill="#EFEFEF"/>
<circle cx="75" cy="151" r="9" fill="#FFAA00"/>
<circle cx="75" cy="129" r="9" fill="#EE484B"/>
<circle cx="119" cy="129" r="9" fill="#EE484B"/>
<circle cx="141" cy="129" r="9" fill="#FFAA00"/>
<circle cx="9" cy="151" r="9" fill="#FFAA00"/>
<circle cx="31" cy="151" r="9" fill="#FFAA00"/>
<circle cx="53" cy="151" r="9" fill="#00C29A"/>
<circle cx="97" cy="151" r="9" fill="#FFAA00"/>
<circle cx="119" cy="151" r="9" fill="#FFAA00"/>
<circle cx="141" cy="151" r="9" fill="#EE484B"/>
<circle cx="9" cy="173" r="9" fill="#EE484B"/>
<circle cx="31" cy="173" r="9" fill="#FFAA00"/>
<circle cx="53" cy="173" r="9" fill="#00C29A"/>
<circle cx="97" cy="173" r="9" fill="#EE484B"/>
<circle cx="254" cy="173" r="9" fill="#00C29A"/>
<circle cx="188" cy="129" r="9" fill="#EFEFEF"/>
<circle cx="188" cy="195" r="9" fill="#EFEFEF"/>
<circle cx="298" cy="173" r="9" fill="#EFEFEF"/>
<circle cx="320" cy="173" r="9" fill="#EFEFEF"/>
<circle cx="210" cy="129" r="9" fill="#EFEFEF"/>
<circle cx="210" cy="195" r="9" fill="#EFEFEF"/>
<circle cx="276" cy="195" r="9" fill="#EFEFEF"/>
<circle cx="210" cy="217" r="9" fill="#EFEFEF"/>
<circle cx="232" cy="129" r="9" fill="#EFEFEF"/>
<circle cx="232" cy="195" r="9" fill="#EFEFEF"/>
<circle cx="298" cy="195" r="9" fill="#EFEFEF"/>
<circle cx="254" cy="195" r="9" fill="#EFEFEF"/>
<circle cx="188" cy="217" r="9" fill="#EFEFEF"/>
<circle cx="320" cy="195" r="9" fill="#EFEFEF"/>
<circle cx="276" cy="129" r="9" fill="#EFEFEF"/>
<circle cx="254" cy="151" r="9" fill="#FFAA00"/>
<circle cx="254" cy="129" r="9" fill="#EE484B"/>
<circle cx="298" cy="129" r="9" fill="#EE484B"/>
<circle cx="320" cy="129" r="9" fill="#FFAA00"/>
<circle cx="188" cy="151" r="9" fill="#FFAA00"/>
<circle cx="210" cy="151" r="9" fill="#FFAA00"/>
<circle cx="232" cy="151" r="9" fill="#00C29A"/>
<circle cx="276" cy="151" r="9" fill="#FFAA00"/>
<circle cx="298" cy="151" r="9" fill="#FFAA00"/>
<circle cx="320" cy="151" r="9" fill="#EE484B"/>
<circle cx="188" cy="173" r="9" fill="#EE484B"/>
<circle cx="210" cy="173" r="9" fill="#FFAA00"/>
<circle cx="232" cy="173" r="9" fill="#00C29A"/>
<circle cx="276" cy="173" r="9" fill="#EE484B"/>
<circle cx="254" cy="53" r="9" fill="#00C29A"/>
<circle cx="188" cy="9" r="9" fill="#EFEFEF"/>
<circle cx="188" cy="75" r="9" fill="#EFEFEF"/>
<circle cx="298" cy="53" r="9" fill="#EFEFEF"/>
<circle cx="320" cy="53" r="9" fill="#EFEFEF"/>
<circle cx="210" cy="9" r="9" fill="#EFEFEF"/>
<circle cx="210" cy="75" r="9" fill="#EFEFEF"/>
<circle cx="276" cy="75" r="9" fill="#EFEFEF"/>
<circle cx="210" cy="97" r="9" fill="#EFEFEF"/>
<circle cx="232" cy="9" r="9" fill="#EFEFEF"/>
<circle cx="232" cy="75" r="9" fill="#EFEFEF"/>
<circle cx="298" cy="75" r="9" fill="#EFEFEF"/>
<circle cx="254" cy="75" r="9" fill="#EFEFEF"/>
<circle cx="188" cy="97" r="9" fill="#EFEFEF"/>
<circle cx="320" cy="75" r="9" fill="#EFEFEF"/>
<circle cx="276" cy="9" r="9" fill="#EFEFEF"/>
<circle cx="254" cy="31" r="9" fill="#FFAA00"/>
<circle cx="254" cy="9" r="9" fill="#EE484B"/>
<circle cx="298" cy="9" r="9" fill="#EE484B"/>
<circle cx="320" cy="9" r="9" fill="#FFAA00"/>
<circle cx="188" cy="31" r="9" fill="#FFAA00"/>
<circle cx="210" cy="31" r="9" fill="#FFAA00"/>
<circle cx="232" cy="31" r="9" fill="#00C29A"/>
<circle cx="276" cy="31" r="9" fill="#FFAA00"/>
<circle cx="298" cy="31" r="9" fill="#FFAA00"/>
<circle cx="320" cy="31" r="9" fill="#EE484B"/>
<circle cx="188" cy="53" r="9" fill="#EE484B"/>
<circle cx="210" cy="53" r="9" fill="#FFAA00"/>
<circle cx="232" cy="53" r="9" fill="#00C29A"/>
<circle cx="276" cy="53" r="9" fill="#EE484B"/>
</svg>
