<svg width="800" height="450" viewBox="0 0 800 450" fill="none" xmlns="http://www.w3.org/2000/svg">
<rect width="800" height="450" fill="#EFEFEF"/>
<mask id="mask0" mask-type="alpha" maskUnits="userSpaceOnUse" x="23" y="0" width="755" height="450">
<rect x="23" width="754.615" height="450" rx="6" fill="#252532"/>
</mask>
<g mask="url(#mask0)">
<path d="M505.299 -40.1793C504.329 -42.055 503.876 -44.166 503.985 -46.2949C504.095 -48.4238 504.765 -50.4938 505.925 -52.2918C506.362 -53.0672 506.8 -53.8426 507.259 -54.655C509.216 -58.2561 510.459 -62.2 510.914 -66.2615C511.37 -70.323 511.03 -74.4226 509.914 -78.3261C507.661 -86.2097 502.383 -92.8164 495.243 -96.6927C491.707 -98.612 487.82 -99.8033 483.805 -100.198C479.789 -100.594 475.723 -100.185 471.838 -98.9957C463.994 -96.5941 457.365 -91.159 453.411 -83.8862C453.119 -83.3693 452.848 -82.8893 452.557 -82.3723C451.613 -80.4601 450.188 -78.8271 448.426 -77.6401C446.664 -76.4531 444.629 -75.7547 442.53 -75.6164C437.099 -75.2542 431.837 -73.453 427.275 -70.3948C422.712 -67.3366 419.01 -63.1295 416.542 -58.1986C413.058 -51.267 412.231 -43.3154 414.223 -35.8908C416.215 -28.4662 420.883 -22.0995 427.319 -18.0292L428.551 -17.3335C432.81 -14.9205 437.598 -13.5871 442.51 -13.4458C444.405 -13.3842 446.252 -12.8677 447.896 -11.9392C449.541 -11.0106 450.937 -9.69659 451.969 -8.10568C454.758 -3.7932 458.583 -0.270989 463.095 2.14034C467.607 4.55168 472.662 5.77554 477.801 5.70052C482.94 5.6255 488 4.25398 492.519 1.71081C497.038 -0.832357 500.874 -4.4664 503.676 -8.86051C506.657 -13.5164 508.377 -18.8661 508.662 -24.3666C508.948 -29.8671 507.787 -35.3226 505.299 -40.1793Z" fill="#00C29A" fill-opacity="0.07"/>
<path d="M292.012 337.619C291.042 335.743 290.588 333.632 290.698 331.503C290.808 329.374 291.477 327.304 292.637 325.506C293.075 324.731 293.513 323.955 293.971 323.143C295.929 319.542 297.171 315.598 297.627 311.536C298.082 307.475 297.743 303.375 296.627 299.472C294.373 291.588 289.096 284.981 281.955 281.105C278.42 279.186 274.533 277.995 270.517 277.599C266.502 277.204 262.435 277.613 258.551 278.802C250.706 281.204 244.078 286.639 240.124 293.912C239.832 294.429 239.561 294.909 239.269 295.426C238.326 297.338 236.9 298.971 235.139 300.158C233.377 301.345 231.342 302.043 229.242 302.181C223.812 302.544 218.55 304.345 213.987 307.403C209.424 310.461 205.722 314.668 203.255 319.599C199.77 326.531 198.943 334.482 200.935 341.907C202.927 349.332 207.595 355.698 214.032 359.769L215.264 360.464C219.523 362.877 224.31 364.211 229.223 364.352C231.118 364.414 232.964 364.93 234.609 365.859C236.254 366.787 237.65 368.101 238.682 369.692C241.471 374.005 245.296 377.527 249.807 379.938C254.319 382.35 259.375 383.573 264.514 383.498C269.653 383.423 274.712 382.052 279.231 379.509C283.751 376.965 287.586 373.331 290.389 368.937C293.37 364.281 295.09 358.932 295.375 353.431C295.66 347.931 294.5 342.475 292.012 337.619Z" fill="#00C29A" fill-opacity="0.3"/>
<path d="M247.914 264.03C249.102 261.925 250.695 257.664 250.647 245.22C250.608 238.77 250.225 233.1 249.971 232.957C249.887 232.224 249.634 231.525 249.231 230.915C248.829 230.304 248.289 229.799 247.655 229.441C247.021 229.083 246.31 228.882 245.579 228.853C244.849 228.824 244.119 228.968 243.448 229.274C243.448 229.274 238.209 231.867 232.703 235.186C222.044 241.537 219.239 245.066 218.051 247.171C215.773 251.206 215.162 255.963 216.351 260.397C217.541 264.831 220.434 268.578 224.394 270.813C228.354 273.049 233.056 273.59 237.467 272.318C241.878 271.046 245.636 268.065 247.914 264.03V264.03Z" fill="#00C29A" fill-opacity="0.3"/>
<path d="M347.665 299.991C347.626 293.542 347.243 287.871 347.134 287.81C347.055 287.071 346.803 286.364 346.4 285.747C345.997 285.13 345.453 284.62 344.814 284.259C344.174 283.898 343.457 283.696 342.72 283.67C341.984 283.643 341.248 283.793 340.575 284.107C340.575 284.107 335.335 286.7 329.829 290.019C319.15 296.407 316.324 299.973 315.136 302.077C314.008 304.075 313.277 306.272 312.985 308.541C312.694 310.81 312.847 313.108 313.436 315.304C314.025 317.499 315.038 319.549 316.418 321.336C317.798 323.123 319.518 324.613 321.478 325.72C323.439 326.827 325.603 327.53 327.846 327.788C330.089 328.046 332.368 327.855 334.552 327.225C336.736 326.595 338.783 325.539 340.575 324.117C342.367 322.695 343.87 320.935 344.998 318.937C346.083 316.676 347.692 312.472 347.665 299.991Z" fill="#00C29A" fill-opacity="0.3"/>
<path d="M269.71 259.877C273.672 262.101 278.371 262.636 282.779 261.365C287.187 260.094 290.944 257.12 293.23 253.094C294.418 250.989 296.012 246.727 295.964 234.283C295.888 227.813 295.479 222.274 295.474 222.028C295.41 221.269 295.165 220.54 294.759 219.902C294.353 219.265 293.799 218.739 293.143 218.369C292.488 217.999 291.751 217.796 290.996 217.778C290.241 217.76 289.489 217.926 288.806 218.264C288.702 218.448 283.603 220.877 278.06 224.176C267.381 230.564 264.555 234.13 263.367 236.234C261.1 240.272 260.495 245.025 261.684 249.456C262.873 253.886 265.758 257.633 269.71 259.877V259.877Z" fill="#00C29A" fill-opacity="0.3"/>
<path d="M307.364 281.134C311.326 283.358 316.025 283.893 320.433 282.622C324.84 281.351 328.598 278.377 330.884 274.351C332.072 272.246 333.629 267.964 333.581 255.52C333.579 249.091 333.133 243.532 333.128 243.286C333.06 242.528 332.812 241.8 332.406 241.165C332 240.529 331.448 240.003 330.795 239.631C330.141 239.257 329.405 239.052 328.649 239.033C327.894 239.013 327.142 239.181 326.46 239.521C326.356 239.706 321.22 242.114 315.714 245.433C305.035 251.821 302.209 255.387 301.021 257.492C298.743 261.526 298.132 266.284 299.321 270.718C300.511 275.152 303.404 278.898 307.364 281.134V281.134Z" fill="#00C29A" fill-opacity="0.3"/>
<path d="M505.03 293.576C504.059 291.7 503.606 289.589 503.716 287.46C503.826 285.331 504.495 283.261 505.655 281.463C506.093 280.688 506.53 279.912 506.989 279.1C508.947 275.499 510.189 271.555 510.645 267.493C511.1 263.432 510.76 259.332 509.645 255.429C507.391 247.545 502.114 240.939 494.973 237.062C491.437 235.143 487.551 233.952 483.535 233.556C479.519 233.161 475.453 233.57 471.569 234.759C463.724 237.161 457.095 242.596 453.142 249.869C452.85 250.386 452.579 250.866 452.287 251.383C451.344 253.295 449.918 254.928 448.156 256.115C446.395 257.302 444.36 258 442.26 258.139C436.83 258.501 431.568 260.302 427.005 263.36C422.442 266.418 418.74 270.625 416.273 275.556C412.788 282.488 411.961 290.439 413.953 297.864C415.945 305.289 420.613 311.655 427.049 315.726L428.282 316.421C432.54 318.834 437.328 320.168 442.241 320.309C444.136 320.371 445.982 320.887 447.627 321.816C449.272 322.744 450.668 324.058 451.699 325.649C454.489 329.962 458.313 333.484 462.825 335.895C467.337 338.307 472.392 339.53 477.531 339.455C482.671 339.38 487.73 338.009 492.249 335.466C496.768 332.923 500.604 329.288 503.407 324.894C506.387 320.238 508.108 314.889 508.393 309.388C508.678 303.888 507.518 298.432 505.03 293.576Z" fill="#00C29A" fill-opacity="0.15"/>
<path d="M460.931 219.987C462.12 217.882 463.713 213.621 463.665 201.177C463.626 194.727 463.243 189.057 462.989 188.914C462.905 188.182 462.651 187.482 462.249 186.872C461.847 186.261 461.307 185.757 460.673 185.398C460.038 185.04 459.328 184.839 458.597 184.81C457.866 184.781 457.137 184.925 456.466 185.231C456.466 185.231 451.226 187.824 445.72 191.143C435.062 197.494 432.257 201.023 431.069 203.128C428.791 207.163 428.179 211.92 429.369 216.354C430.558 220.788 433.451 224.535 437.411 226.771C441.371 229.006 446.074 229.547 450.485 228.275C454.896 227.003 458.653 224.022 460.931 219.987V219.987Z" fill="#00C29A" fill-opacity="0.15"/>
<path d="M560.683 255.948C560.644 249.499 560.261 243.828 560.152 243.767C560.072 243.028 559.821 242.321 559.418 241.704C559.014 241.087 558.471 240.577 557.831 240.216C557.192 239.855 556.475 239.653 555.738 239.627C555.001 239.6 554.266 239.75 553.592 240.064C553.592 240.064 548.353 242.657 542.847 245.976C532.167 252.364 529.342 255.93 528.153 258.035C527.025 260.032 526.295 262.229 526.003 264.498C525.712 266.767 525.865 269.065 526.454 271.261C527.043 273.456 528.056 275.506 529.436 277.293C530.816 279.08 532.535 280.57 534.496 281.677C536.457 282.784 538.621 283.487 540.864 283.745C543.107 284.003 545.386 283.812 547.57 283.182C549.754 282.552 551.8 281.496 553.593 280.074C555.385 278.652 556.888 276.892 558.016 274.894C559.101 272.633 560.71 268.429 560.683 255.948Z" fill="#00C29A" fill-opacity="0.15"/>
<path d="M482.728 215.834C486.69 218.058 491.389 218.593 495.797 217.322C500.204 216.051 503.962 213.077 506.248 209.051C507.436 206.946 509.029 202.684 508.981 190.24C508.906 183.77 508.497 178.231 508.492 177.985C508.428 177.226 508.183 176.497 507.777 175.859C507.371 175.222 506.816 174.696 506.161 174.326C505.506 173.956 504.769 173.753 504.014 173.735C503.258 173.717 502.507 173.883 501.824 174.221C501.72 174.405 496.621 176.834 491.078 180.133C480.399 186.521 477.573 190.087 476.385 192.191C474.118 196.229 473.513 200.982 474.702 205.413C475.89 209.843 478.776 213.59 482.728 215.834V215.834Z" fill="#00C29A" fill-opacity="0.15"/>
<path d="M520.382 237.091C524.344 239.315 529.043 239.85 533.451 238.579C537.858 237.308 541.616 234.334 543.901 230.308C545.09 228.203 546.647 223.921 546.599 211.477C546.596 205.048 546.151 199.489 546.146 199.243C546.078 198.485 545.83 197.758 545.424 197.122C545.018 196.486 544.465 195.96 543.812 195.588C543.159 195.214 542.423 195.009 541.667 194.99C540.912 194.97 540.16 195.138 539.478 195.478C539.373 195.663 534.238 198.071 528.732 201.39C518.053 207.778 515.227 211.344 514.039 213.449C511.761 217.483 511.149 222.241 512.339 226.675C513.528 231.109 516.421 234.856 520.382 237.091V237.091Z" fill="#00C29A" fill-opacity="0.15"/>
<path d="M610.54 106.687C609.569 104.811 609.116 102.7 609.226 100.571C609.336 98.4424 610.005 96.3724 611.165 94.5744C611.603 93.799 612.04 93.0236 612.499 92.2112C614.457 88.6101 615.699 84.6662 616.155 80.6047C616.61 76.5432 616.27 72.4437 615.155 68.5401C612.901 60.6565 607.624 54.0499 600.483 50.1735C596.947 48.2542 593.061 47.0629 589.045 46.6678C585.029 46.2726 580.963 46.6813 577.079 47.8705C569.234 50.2721 562.605 55.7072 558.652 62.98C558.36 63.4969 558.089 63.9769 557.797 64.4939C556.854 66.4061 555.428 68.0391 553.666 69.2261C551.905 70.4131 549.87 71.1115 547.77 71.2498C542.34 71.612 537.078 73.4132 532.515 76.4714C527.952 79.5296 524.25 83.7367 521.783 88.6676C518.298 95.5992 517.471 103.551 519.463 110.975C521.455 118.4 526.123 124.767 532.559 128.837L533.792 129.533C538.05 131.946 542.838 133.279 547.751 133.42C549.646 133.482 551.492 133.998 553.137 134.927C554.782 135.856 556.178 137.17 557.209 138.761C559.999 143.073 563.823 146.595 568.335 149.007C572.847 151.418 577.902 152.642 583.041 152.567C588.181 152.492 593.24 151.12 597.759 148.577C602.279 146.034 606.114 142.4 608.917 138.006C611.898 133.35 613.618 128 613.903 122.5C614.188 116.999 613.028 111.544 610.54 106.687Z" fill="#00C29A" fill-opacity="0.07"/>
<path d="M566.441 33.0985C567.63 30.9938 569.223 26.7319 569.175 14.288C569.136 7.83854 568.753 2.16847 568.499 2.02524C568.415 1.29285 568.161 0.593358 567.759 -0.0171402C567.357 -0.627639 566.817 -1.13215 566.183 -1.49022C565.548 -1.84828 564.838 -2.04993 564.107 -2.079C563.376 -2.10807 562.647 -1.96374 561.976 -1.65759C561.976 -1.65759 556.736 0.935459 551.23 4.25454C540.572 10.6053 537.767 14.1346 536.579 16.2393C534.301 20.274 533.689 25.0316 534.879 29.4654C536.068 33.8993 538.961 37.6462 542.921 39.8818C546.881 42.1175 551.584 42.6588 555.995 41.3867C560.406 40.1146 564.164 37.1332 566.441 33.0985V33.0985Z" fill="#00C29A" fill-opacity="0.07"/>
<path d="M666.193 69.0594C666.154 62.6099 665.771 56.9398 665.662 56.8784C665.582 56.1394 665.331 55.4325 664.928 54.8155C664.524 54.1984 663.981 53.6886 663.341 53.3276C662.702 52.9667 661.985 52.7647 661.248 52.7382C660.511 52.7117 659.776 52.8614 659.102 53.1751C659.102 53.1751 653.863 55.7682 648.357 59.0873C637.677 65.4749 634.852 69.0411 633.663 71.1458C632.535 73.1436 631.805 75.3399 631.513 77.6093C631.222 79.8786 631.375 82.1766 631.964 84.372C632.553 86.5674 633.566 88.6173 634.946 90.4045C636.326 92.1918 638.045 93.6814 640.006 94.7884C641.967 95.8954 644.131 96.5981 646.374 96.8563C648.617 97.1145 650.896 96.9232 653.08 96.2933C655.264 95.6634 657.31 94.6072 659.103 93.1851C660.895 91.7631 662.398 90.0029 663.526 88.0051C664.611 85.7447 666.22 81.5402 666.193 69.0594Z" fill="#00C29A" fill-opacity="0.07"/>
<path d="M588.238 28.9454C592.2 31.1696 596.899 31.7047 601.307 30.4335C605.714 29.1623 609.472 26.1883 611.758 22.162C612.946 20.0573 614.539 15.7955 614.491 3.35157C614.416 -3.11839 614.007 -8.65723 614.002 -8.90323C613.938 -9.66261 613.693 -10.3921 613.287 -11.0293C612.881 -11.6666 612.326 -12.1926 611.671 -12.5626C611.016 -12.9325 610.279 -13.1353 609.524 -13.1537C608.769 -13.172 608.017 -13.0053 607.334 -12.6679C607.23 -12.4833 602.131 -10.0544 596.588 -6.75578C585.909 -0.368105 583.083 3.19808 581.895 5.30279C579.628 9.33992 579.023 14.0936 580.212 18.5242C581.4 22.9547 584.286 26.7016 588.238 28.9454V28.9454Z" fill="#00C29A" fill-opacity="0.07"/>
<path d="M625.892 50.2025C629.854 52.4268 634.553 52.9618 638.961 51.6906C643.368 50.4195 647.126 47.4455 649.412 43.4192C650.6 41.3145 652.157 37.0322 652.109 24.5883C652.106 18.1592 651.661 12.5999 651.656 12.3539C651.588 11.5961 651.34 10.8688 650.934 10.233C650.528 9.59709 649.975 9.07116 649.323 8.6992C648.669 8.32552 647.933 8.12015 647.177 8.10099C646.422 8.08183 645.67 8.24944 644.988 8.58925C644.883 8.77387 639.748 11.1823 634.242 14.5014C623.563 20.8891 620.737 24.4552 619.549 26.5599C617.271 30.5947 616.659 35.3523 617.849 39.7861C619.039 44.22 621.932 47.9668 625.892 50.2025V50.2025Z" fill="#00C29A" fill-opacity="0.07"/>
<path d="M399.52 480.464C398.55 478.589 398.097 476.478 398.207 474.349C398.316 472.22 398.986 470.15 400.146 468.352C400.583 467.576 401.021 466.801 401.48 465.989C403.438 462.387 404.68 458.444 405.135 454.382C405.591 450.321 405.251 446.221 404.135 442.317C401.882 434.434 396.605 427.827 389.464 423.951C385.928 422.032 382.042 420.84 378.026 420.445C374.01 420.05 369.944 420.459 366.06 421.648C358.215 424.049 351.586 429.485 347.632 436.757C347.341 437.274 347.07 437.754 346.778 438.271C345.834 440.183 344.409 441.816 342.647 443.003C340.885 444.19 338.851 444.889 336.751 445.027C331.321 445.389 326.058 447.191 321.496 450.249C316.933 453.307 313.231 457.514 310.764 462.445C307.279 469.377 306.452 477.328 308.444 484.753C310.436 492.177 315.104 498.544 321.54 502.614L322.772 503.31C327.031 505.723 331.819 507.057 336.731 507.198C338.627 507.259 340.473 507.776 342.118 508.704C343.762 509.633 345.158 510.947 346.19 512.538C348.98 516.85 352.804 520.373 357.316 522.784C361.828 525.195 366.883 526.419 372.022 526.344C377.161 526.269 382.221 524.898 386.74 522.354C391.259 519.811 395.095 516.177 397.897 511.783C400.878 507.127 402.599 501.777 402.884 496.277C403.169 490.776 402.008 485.321 399.52 480.464Z" fill="#00C29A" fill-opacity="0.3"/>
<path d="M355.422 406.876C356.61 404.771 358.204 400.509 358.156 388.065C358.117 381.616 357.734 375.946 357.48 375.803C357.396 375.07 357.142 374.371 356.74 373.76C356.338 373.15 355.798 372.645 355.163 372.287C354.529 371.929 353.818 371.727 353.088 371.698C352.357 371.669 351.627 371.814 350.957 372.12C350.957 372.12 345.717 374.713 340.211 378.032C329.553 384.383 326.748 387.912 325.559 390.017C323.282 394.051 322.67 398.809 323.86 403.243C325.049 407.677 327.942 411.424 331.902 413.659C335.862 415.895 340.565 416.436 344.976 415.164C349.387 413.892 353.144 410.911 355.422 406.876V406.876Z" fill="#00C29A" fill-opacity="0.3"/>
<path d="M455.174 442.837C455.135 436.387 454.751 430.717 454.643 430.656C454.563 429.917 454.312 429.21 453.908 428.593C453.505 427.976 452.962 427.466 452.322 427.105C451.683 426.744 450.966 426.542 450.229 426.516C449.492 426.489 448.757 426.639 448.083 426.952C448.083 426.952 442.844 429.546 437.338 432.865C426.658 439.252 423.832 442.818 422.644 444.923C421.516 446.921 420.786 449.117 420.494 451.387C420.202 453.656 420.355 455.954 420.944 458.149C421.533 460.345 422.547 462.395 423.927 464.182C425.307 465.969 427.026 467.459 428.987 468.566C430.948 469.673 433.112 470.375 435.355 470.634C437.598 470.892 439.877 470.701 442.061 470.071C444.245 469.441 446.291 468.385 448.084 466.962C449.876 465.54 451.379 463.78 452.507 461.782C453.592 459.522 455.201 455.318 455.174 442.837Z" fill="#00C29A" fill-opacity="0.3"/>
<path d="M377.218 402.723C381.181 404.947 385.88 405.482 390.288 404.211C394.695 402.94 398.453 399.966 400.738 395.939C401.927 393.835 403.52 389.573 403.472 377.129C403.397 370.659 402.987 365.12 402.983 364.874C402.919 364.115 402.673 363.385 402.267 362.748C401.861 362.111 401.307 361.585 400.652 361.215C399.997 360.845 399.26 360.642 398.505 360.624C397.749 360.605 396.998 360.772 396.315 361.109C396.21 361.294 391.111 363.723 385.569 367.022C374.89 373.409 372.064 376.975 370.876 379.08C368.609 383.117 368.004 387.871 369.192 392.301C370.381 396.732 373.267 400.479 377.218 402.723V402.723Z" fill="#00C29A" fill-opacity="0.3"/>
<path d="M414.872 423.98C418.835 426.204 423.534 426.739 427.941 425.468C432.349 424.197 436.107 421.223 438.392 417.197C439.58 415.092 441.138 410.81 441.09 398.366C441.087 391.937 440.641 386.377 440.637 386.131C440.568 385.373 440.321 384.646 439.915 384.01C439.509 383.374 438.956 382.849 438.303 382.477C437.65 382.103 436.913 381.897 436.158 381.878C435.402 381.859 434.651 382.027 433.968 382.367C433.864 382.551 428.729 384.96 423.223 388.279C412.543 394.666 409.718 398.233 408.529 400.337C406.252 404.372 405.64 409.13 406.83 413.563C408.019 417.997 410.912 421.744 414.872 423.98V423.98Z" fill="#00C29A" fill-opacity="0.3"/>
<path d="M398.655 148.717C397.685 146.841 397.232 144.73 397.341 142.602C397.451 140.473 398.121 138.403 399.281 136.605C399.718 135.829 400.156 135.054 400.615 134.242C402.572 130.64 403.815 126.696 404.27 122.635C404.726 118.573 404.386 114.474 403.27 110.57C401.017 102.687 395.739 96.0801 388.599 92.2038C385.063 90.2845 381.176 89.0932 377.161 88.698C373.145 88.3029 369.079 88.7116 365.194 89.9007C357.35 92.3024 350.721 97.7375 346.767 105.01C346.475 105.527 346.204 106.007 345.913 106.524C344.969 108.436 343.544 110.069 341.782 111.256C340.02 112.443 337.985 113.142 335.885 113.28C330.455 113.642 325.193 115.443 320.63 118.502C316.068 121.56 312.366 125.767 309.898 130.698C306.414 137.63 305.587 145.581 307.579 153.006C309.57 160.43 314.239 166.797 320.675 170.867L321.907 171.563C326.166 173.976 330.954 175.309 335.866 175.451C337.761 175.512 339.608 176.029 341.252 176.957C342.897 177.886 344.293 179.2 345.325 180.791C348.114 185.103 351.939 188.625 356.451 191.037C360.962 193.448 366.018 194.672 371.157 194.597C376.296 194.522 381.356 193.15 385.875 190.607C390.394 188.064 394.23 184.43 397.032 180.036C400.013 175.38 401.733 170.03 402.018 164.53C402.303 159.029 401.143 153.574 398.655 148.717Z" fill="#00C29A" fill-opacity="0.15"/>
<path d="M354.557 75.1288C355.745 73.024 357.339 68.7622 357.291 56.3183C357.252 49.8688 356.869 44.1987 356.615 44.0555C356.531 43.3231 356.277 42.6236 355.875 42.0131C355.472 41.4026 354.933 40.8981 354.298 40.5401C353.664 40.182 352.953 39.9803 352.223 39.9513C351.492 39.9222 350.762 40.0665 350.091 40.3727C350.091 40.3727 344.852 42.9657 339.346 46.2848C328.687 52.6356 325.882 56.1648 324.694 58.2695C322.416 62.3043 321.805 67.0619 322.994 71.4957C324.184 75.9295 327.077 79.6764 331.037 81.9121C334.997 84.1478 339.7 84.6891 344.111 83.417C348.521 82.1448 352.279 79.1635 354.557 75.1288V75.1288Z" fill="#00C29A" fill-opacity="0.15"/>
<path d="M454.309 111.09C454.27 104.64 453.886 98.9701 453.778 98.9087C453.698 98.1696 453.446 97.4628 453.043 96.8457C452.64 96.2287 452.096 95.7189 451.457 95.3579C450.818 94.9969 450.1 94.795 449.364 94.7685C448.627 94.742 447.892 94.8917 447.218 95.2054C447.218 95.2054 441.978 97.7985 436.472 101.118C425.793 107.505 422.967 111.071 421.779 113.176C420.651 115.174 419.92 117.37 419.629 119.64C419.337 121.909 419.49 124.207 420.079 126.402C420.668 128.598 421.682 130.648 423.062 132.435C424.441 134.222 426.161 135.712 428.122 136.819C430.083 137.926 432.246 138.628 434.49 138.887C436.733 139.145 439.011 138.953 441.195 138.324C443.379 137.694 445.426 136.638 447.218 135.215C449.011 133.793 450.514 132.033 451.642 130.035C452.727 127.775 454.336 123.57 454.309 111.09Z" fill="#00C29A" fill-opacity="0.15"/>
<path d="M376.353 70.9756C380.316 73.1999 385.015 73.7349 389.422 72.4638C393.83 71.1926 397.587 68.2186 399.873 64.1923C401.061 62.0876 402.655 57.8257 402.607 45.3818C402.532 38.9119 402.122 33.373 402.118 33.127C402.054 32.3677 401.808 31.6382 401.402 31.0009C400.996 30.3637 400.442 29.8376 399.787 29.4677C399.132 29.0978 398.395 28.895 397.639 28.8766C396.884 28.8583 396.133 29.0249 395.449 29.3624C395.345 29.547 390.246 31.9759 384.704 35.2745C374.024 41.6622 371.199 45.2284 370.01 47.3331C367.744 51.3702 367.139 56.1239 368.327 60.5544C369.516 64.985 372.402 68.7319 376.353 70.9756V70.9756Z" fill="#00C29A" fill-opacity="0.15"/>
<path d="M414.007 92.2328C417.97 94.4571 422.669 94.9921 427.076 93.7209C431.484 92.4497 435.241 89.4758 437.527 85.4494C438.715 83.3447 440.273 79.0624 440.225 66.6185C440.222 60.1895 439.776 54.6302 439.772 54.3842C439.703 53.6264 439.456 52.8991 439.05 52.2632C438.644 51.6274 438.091 51.1014 437.438 50.7295C436.785 50.3558 436.048 50.1504 435.293 50.1313C434.537 50.1121 433.786 50.2797 433.103 50.6195C432.999 50.8041 427.864 53.2126 422.358 56.5317C411.678 62.9193 408.853 66.4855 407.664 68.5902C405.386 72.625 404.775 77.3825 405.965 81.8164C407.154 86.2502 410.047 89.9971 414.007 92.2328V92.2328Z" fill="#00C29A" fill-opacity="0.15"/>
<path d="M185.368 526.517C184.398 524.641 183.944 522.53 184.054 520.401C184.164 518.272 184.833 516.203 185.993 514.404C186.431 513.629 186.869 512.854 187.327 512.041C189.285 508.44 190.527 504.496 190.983 500.435C191.439 496.373 191.099 492.274 189.983 488.37C187.73 480.487 182.452 473.88 175.311 470.004C171.776 468.084 167.889 466.893 163.873 466.498C159.858 466.103 155.792 466.511 151.907 467.701C144.062 470.102 137.434 475.537 133.48 482.81C133.188 483.327 132.917 483.807 132.625 484.324C131.682 486.236 130.256 487.869 128.495 489.056C126.733 490.243 124.698 490.942 122.598 491.08C117.168 491.442 111.906 493.243 107.343 496.301C102.78 499.36 99.0784 503.567 96.6111 508.498C93.1263 515.429 92.2995 523.381 94.2913 530.805C96.2832 538.23 100.951 544.597 107.388 548.667L108.62 549.363C112.879 551.776 117.666 553.109 122.579 553.25C124.474 553.312 126.32 553.829 127.965 554.757C129.61 555.686 131.006 557 132.038 558.591C134.827 562.903 138.652 566.425 143.163 568.837C147.675 571.248 152.731 572.472 157.87 572.397C163.009 572.322 168.068 570.95 172.588 568.407C177.107 565.864 180.942 562.23 183.745 557.836C186.726 553.18 188.446 547.83 188.731 542.33C189.016 536.829 187.856 531.374 185.368 526.517Z" fill="#00C29A" fill-opacity="0.3"/>
<path d="M141.27 452.929C142.458 450.824 144.051 446.562 144.004 434.118C143.965 427.669 143.581 421.999 143.328 421.855C143.243 421.123 142.99 420.423 142.587 419.813C142.185 419.202 141.645 418.698 141.011 418.34C140.377 417.982 139.666 417.78 138.935 417.751C138.205 417.722 137.475 417.866 136.804 418.172C136.804 418.172 131.565 420.766 126.059 424.085C115.4 430.435 112.595 433.965 111.407 436.069C109.129 440.104 108.518 444.862 109.707 449.296C110.897 453.729 113.79 457.476 117.75 459.712C121.71 461.948 126.412 462.489 130.823 461.217C135.234 459.945 138.992 456.963 141.27 452.929V452.929Z" fill="#00C29A" fill-opacity="0.3"/>
<path d="M163.066 448.775C167.029 451 171.728 451.535 176.135 450.264C180.543 448.992 184.3 446.018 186.586 441.992C187.774 439.887 189.368 435.626 189.32 423.182C189.245 416.712 188.835 411.173 188.831 410.927C188.766 410.167 188.521 409.438 188.115 408.801C187.709 408.163 187.155 407.637 186.5 407.268C185.844 406.898 185.108 406.695 184.352 406.676C183.597 406.658 182.845 406.825 182.162 407.162C182.058 407.347 176.959 409.776 171.417 413.074C160.737 419.462 157.911 423.028 156.723 425.133C154.457 429.17 153.851 433.924 155.04 438.354C156.229 442.785 159.114 446.532 163.066 448.775V448.775Z" fill="#00C29A" fill-opacity="0.3"/>
<path d="M200.72 470.033C204.683 472.257 209.381 472.792 213.789 471.521C218.197 470.25 221.954 467.276 224.24 463.249C225.428 461.145 226.985 456.862 226.937 444.418C226.935 437.989 226.489 432.43 226.484 432.184C226.416 431.426 226.168 430.699 225.762 430.063C225.356 429.427 224.804 428.901 224.151 428.529C223.498 428.156 222.761 427.95 222.006 427.931C221.25 427.912 220.498 428.08 219.816 428.419C219.712 428.604 214.577 431.012 209.071 434.331C198.391 440.719 195.565 444.285 194.377 446.39C192.099 450.425 191.488 455.182 192.677 459.616C193.867 464.05 196.76 467.797 200.72 470.033V470.033Z" fill="#00C29A" fill-opacity="0.3"/>
<circle cx="400.858" cy="225.55" r="119.396" fill="#004242"/>
<path d="M436.488 249.005C434.721 247.849 433.288 246.233 432.337 244.325C431.386 242.417 430.951 240.286 431.077 238.15C431.077 237.259 431.077 236.369 431.077 235.436C431.012 231.338 430.155 227.293 428.555 223.532C426.955 219.771 424.643 216.368 421.753 213.517C415.915 207.76 408.071 204.602 399.947 204.737C395.925 204.803 391.955 205.677 388.263 207.307C384.572 208.937 381.232 211.292 378.434 214.237C372.784 220.185 369.683 228.177 369.816 236.454C369.816 237.047 369.816 237.599 369.816 238.192C369.934 240.321 369.496 242.444 368.545 244.344C367.595 246.244 366.166 247.852 364.406 249.005C359.855 251.99 356.158 256.145 353.688 261.052C351.219 265.958 350.063 271.441 350.339 276.948C350.712 284.698 353.901 292.028 359.286 297.515C364.67 303.001 371.865 306.25 379.471 306.63H380.886C385.781 306.638 390.606 305.445 394.953 303.153C396.634 302.275 398.495 301.817 400.384 301.817C402.273 301.817 404.135 302.275 405.815 303.153C410.364 305.537 415.427 306.724 420.541 306.606C425.655 306.488 430.659 305.068 435.097 302.476C439.536 299.884 443.267 296.203 445.952 291.766C448.638 287.33 450.191 282.28 450.471 277.076C450.778 271.556 449.646 266.051 447.19 261.121C444.734 256.191 441.042 252.011 436.488 249.005Z" fill="#00C29A"/>
<path d="M361.908 206.602C361.908 204.185 361.201 199.691 355.042 188.878C351.837 183.281 348.716 178.532 348.424 178.532C347.991 177.935 347.426 177.451 346.776 177.117C346.125 176.783 345.407 176.609 344.679 176.609C343.95 176.609 343.232 176.783 342.582 177.117C341.931 177.451 341.367 177.935 340.933 178.532C340.933 178.532 337.645 183.366 334.482 188.963C328.323 199.733 327.615 204.185 327.615 206.602C327.615 211.236 329.422 215.679 332.637 218.955C335.853 222.232 340.214 224.072 344.762 224.072C349.309 224.072 353.671 222.232 356.886 218.955C360.102 215.679 361.908 211.236 361.908 206.602V206.602Z" fill="#00C29A"/>
<path d="M466.453 188.878C463.248 183.28 460.127 178.531 460.002 178.531C459.569 177.927 459.003 177.435 458.348 177.096C457.694 176.757 456.97 176.58 456.236 176.58C455.501 176.58 454.777 176.757 454.123 177.096C453.468 177.435 452.902 177.927 452.469 178.531C452.469 178.531 449.181 183.365 446.018 188.962C439.859 199.775 439.151 204.27 439.151 206.687C439.151 208.981 439.595 211.253 440.457 213.372C441.318 215.492 442.581 217.418 444.174 219.04C445.766 220.662 447.656 221.949 449.736 222.827C451.817 223.705 454.046 224.157 456.298 224.157C458.55 224.157 460.779 223.705 462.86 222.827C464.94 221.949 466.83 220.662 468.422 219.04C470.015 217.418 471.278 215.492 472.139 213.372C473.001 211.253 473.445 208.981 473.445 206.687C473.278 204.185 472.612 199.733 466.453 188.878Z" fill="#00C29A"/>
<path d="M378.847 192.269C383.391 192.258 387.746 190.414 390.959 187.14C394.173 183.866 395.983 179.429 395.994 174.8C395.994 172.383 395.286 167.888 389.127 157.075C385.88 151.478 382.801 146.856 382.676 146.644C382.247 146.014 381.674 145.5 381.008 145.144C380.341 144.789 379.6 144.604 378.847 144.604C378.095 144.604 377.353 144.789 376.687 145.144C376.02 145.5 375.447 146.014 375.018 146.644C375.018 146.856 371.772 151.478 368.567 157.075C362.408 167.888 361.701 172.383 361.701 174.8C361.711 179.429 363.522 183.866 366.735 187.14C369.948 190.414 374.303 192.258 378.847 192.269V192.269Z" fill="#00C29A"/>
<path d="M422.087 192.269C426.631 192.258 430.986 190.414 434.199 187.14C437.413 183.866 439.223 179.429 439.234 174.799C439.234 172.382 438.485 167.888 432.325 157.075C429.162 151.478 426.041 146.856 425.916 146.644C425.484 146.018 424.911 145.506 424.244 145.152C423.578 144.798 422.838 144.611 422.087 144.608C421.334 144.604 420.592 144.787 419.925 145.142C419.258 145.497 418.685 146.012 418.258 146.644C418.258 146.856 414.97 151.478 411.807 157.075C405.648 167.888 404.941 172.382 404.941 174.799C404.941 179.432 406.747 183.876 409.963 187.152C413.178 190.429 417.54 192.269 422.087 192.269V192.269Z" fill="#00C29A"/>
</g>
</svg>
